<?xml version="1.0" encoding="UTF-8"?>
<svg width="153px" height="47px" viewBox="0 0 153 47" version="1.1" xmlns="http://www.w3.org/2000/svg" xmlns:xlink="http://www.w3.org/1999/xlink">
    <title>Group 18</title>
    <g id="Menu-Option-1" stroke="none" stroke-width="1" fill="none" fill-rule="evenodd">
        <g id="Homepage-Copy-2" transform="translate(-828.000000, -78.000000)" fill="#005280">
            <g id="Group-18" transform="translate(828.500000, 78.250000)">
                <polygon id="Fill-1" points="92.658536 25.0418728 96.6612924 25.0418728 94.6443997 18.0311409"></polygon>
                <path d="M26.6775958,17.5533725 C23.8415342,17.5533725 23.3450683,21.2116474 23.3450683,23.0292446 C23.3450683,24.8237612 24.2076779,28.285851 26.6713899,28.285851 C29.1413079,28.285851 30.0101796,24.8295313 30.0101796,23.0350147 C30.016329,21.2116474 29.5136573,17.5533725 26.6775958,17.5533725" id="Fill-2"></path>
                <path d="M54.8185248,17.8776549 L53.7945639,17.8776549 L53.7945639,28.0735095 L54.7999073,28.0735095 C55.8859265,28.0735095 57.0526214,27.9754169 57.8035261,26.8156168 C58.4551376,25.7481391 58.7902521,24.3979241 58.7902521,22.9496165 C58.7902521,21.5013089 58.4551376,20.1741745 57.8035261,19.1182371 C57.0588272,17.958437 55.8983382,17.8776549 54.8185248,17.8776549" id="Fill-4"></path>
                <path d="M127.579328,26.0002947 L127.579328,31.3088324 L123.005635,31.3088324 L123.005635,26.0002947 L117.656215,14.6561803 L122.167849,14.6561803 L125.295584,21.9381093 L128.435731,14.6561803 L132.94116,14.6561803 L127.579328,26.0002947 Z M111.673801,31.3088324 L106.225088,31.3088324 L101.620366,14.6561803 L106.169235,14.6561803 L108.95565,26.2714917 L111.760683,14.6561803 L116.303346,14.6561803 L111.673801,31.3088324 Z M98.4802194,31.3088324 L97.54314,28.0717784 L91.7965471,28.0717784 L90.8718793,31.3088324 L86.6953598,31.3088324 L91.5048734,14.6561803 L97.754138,14.6561803 L102.576063,31.3088324 L98.4802194,31.3088324 Z M84.399205,31.3088324 L80.2847438,31.3088324 L74.5815916,21.7880854 L74.5753858,31.3088324 L70.4547187,31.3088324 L70.4547187,14.6561803 L74.5753858,14.6561803 L80.2847438,24.3096408 L80.2847438,14.6561803 L84.399205,14.6561803 L84.399205,31.3088324 Z M63.2001106,22.9709661 L63.2001106,23.0575183 L63.2001106,23.0805989 L63.2001106,23.0805989 C63.1690814,25.4867514 62.5360874,27.8178918 60.9349848,29.479695 C59.2532066,31.2684414 57.4597235,31.3146026 55.2132152,31.3088324 L49.4852398,31.3088324 L49.4852398,14.6561803 L55.2256269,14.6561803 C57.4721351,14.6561803 59.271824,14.6677206 60.9411907,16.456467 C62.5484991,18.1240403 63.1752873,20.4724912 63.2001106,22.890184 L63.2001106,22.890184 L63.2001106,22.9709661 Z M47.1890849,31.3146026 L36.5895377,31.3146026 L36.5895377,14.6561803 L40.6915873,14.6561803 L40.6915873,28.0717784 L47.1890849,28.0717784 L47.1890849,31.3146026 Z M26.6664253,31.5280981 L26.6602195,31.5280981 C21.9624108,31.5280981 19.0332619,27.9217545 19.0208502,23.0228974 L19.0208502,22.9882765 C19.0208502,17.8297627 21.9375875,14.3619027 26.6726311,14.3676656 C31.4014689,14.3676656 34.3182061,17.841303 34.3120102,22.9998168 C34.3120102,27.9102142 31.3766456,31.5280981 26.6664253,31.5280981 L26.6664253,31.5280981 Z M75.977902,0 C34.0203266,0 -4.97379915e-13,10.2766367 -4.97379915e-13,22.9421153 C-4.97379915e-13,35.6191343 34.0203266,45.8900008 75.977902,45.8900008 C117.935477,45.8900008 151.968216,35.6191343 151.968216,22.9421153 C151.968216,10.2766367 117.935477,0 75.977902,0 L75.977902,0 Z" id="Fill-6"></path>
            </g>
        </g>
    </g>
</svg>