<?xml version="1.0" encoding="UTF-8"?>
<svg width="323px" height="18px" viewBox="0 0 323 18" version="1.1" xmlns="http://www.w3.org/2000/svg" xmlns:xlink="http://www.w3.org/1999/xlink">
    <title>Group 25</title>
    <defs>
        <polygon id="path-1" points="0 18 321.69 18 321.69 0 0 0"></polygon>
    </defs>
    <g id="Menu-Option-1" stroke="none" stroke-width="1" fill="none" fill-rule="evenodd">
        <g id="Homepage-Copy-2" transform="translate(-1025.000000, -392.000000)">
            <g id="Group-25" transform="translate(1025.576923, 392.000000)">
                <polygon id="Fill-1" fill="#00285E" points="0 0.3474 0 2.5914 6.024 2.5914 6.024 17.7714 8.532 17.7714 8.532 2.5914 14.562 2.5914 14.562 0.3474"></polygon>
                <g id="Group-24">
                    <path d="M33.0876,15.6996 C36.9936,15.6996 39.8856,12.8616 39.8856,9.0576 C39.8856,5.2236 36.9936,2.4156 33.0876,2.4156 C29.2056,2.4156 26.3196,5.2236 26.3196,9.0576 C26.3196,12.8616 29.2056,15.6996 33.0876,15.6996 M33.0876,0.1176 C38.8356,0.1176 42.4656,4.2036 42.4656,9.0576 C42.4656,13.7616 38.9376,17.9976 33.0336,17.9976 C27.3396,17.9976 23.7336,13.7856 23.7336,9.0576 C23.7336,4.2276 27.4416,0.1176 33.0876,0.1176" id="Fill-2" fill="#00285E"></path>
                    <polygon id="Fill-4" fill="#00285E" points="70.4676 17.7708 67.9656 17.7708 67.9656 4.2048 67.9116 4.2048 62.5476 10.9488 62.1396 10.9488 56.7696 4.2048 56.7216 4.2048 56.7216 17.7708 54.2196 17.7708 54.2196 0.3468 56.5716 0.3468 62.3436 7.4988 68.1396 0.3468 70.4676 0.3468"></polygon>
                    <polygon id="Fill-6" fill="#00285E" points="100.8714 17.7708 98.3694 17.7708 98.3694 4.2048 98.3154 4.2048 92.9514 10.9488 92.5434 10.9488 87.1734 4.2048 87.1254 4.2048 87.1254 17.7708 84.6234 17.7708 84.6234 0.3468 86.9694 0.3468 92.7474 7.4988 98.5434 0.3468 100.8714 0.3468"></polygon>
                    <polygon id="Fill-8" fill="#00285E" points="124.1478 0.345 127.1598 0.345 120.6978 8.571 120.6978 17.769 118.1898 17.769 118.1898 8.547 111.7278 0.345 114.7458 0.345 119.4198 6.351"></polygon>
                    <polygon id="Fill-10" fill="#00285E" points="194.8998 17.7708 192.3978 17.7708 192.3978 10.1808 182.6418 10.1808 182.6418 17.7708 180.1338 17.7708 180.1338 0.3468 182.6418 0.3468 182.6418 7.9308 192.3978 7.9308 192.3978 0.3468 194.8998 0.3468"></polygon>
                    <mask id="mask-2" fill="white">
                        <use xlink:href="#path-1"></use>
                    </mask>
                    <g id="Clip-13"></g>
                    <polygon id="Fill-12" fill="#00285E" mask="url(#mask-2)" points="205.272 17.772 207.774 17.772 207.774 0.348 205.272 0.348"></polygon>
                    <polygon id="Fill-14" fill="#00285E" mask="url(#mask-2)" points="220.5522 15.5208 228.4242 15.5208 228.4242 17.7708 218.0502 17.7708 218.0502 0.3468 220.5522 0.3468"></polygon>
                    <polygon id="Fill-15" fill="#00285E" mask="url(#mask-2)" points="244.9158 2.592 238.1178 2.592 238.1178 7.422 244.9158 7.422 244.9158 9.672 238.1178 9.672 238.1178 17.772 235.6158 17.772 235.6158 0.342 244.9158 0.342"></polygon>
                    <polygon id="Fill-16" fill="#00285E" mask="url(#mask-2)" points="253.68 17.772 256.182 17.772 256.182 0.348 253.68 0.348"></polygon>
                    <path d="M280.0164,16.5696 C277.6944,17.5896 275.8044,17.9976 273.3804,17.9976 C268.0344,17.9976 264.1044,14.2716 264.1044,9.1596 C264.1044,4.0236 268.1424,0.1116 273.4524,0.1116 C275.4984,0.1116 276.9264,0.4476 279.6624,1.5936 L279.6624,4.1256 C277.6164,3.0036 275.4984,2.4156 273.4044,2.4156 C269.6244,2.4156 266.6784,5.3016 266.6784,9.0816 C266.6784,12.9636 269.5944,15.6996 273.7344,15.6996 C275.0844,15.6996 276.3144,15.3936 277.5144,15.0096 L277.5144,11.4336 L274.1664,11.4336 L274.1664,9.1896 L280.0164,9.1896 L280.0164,16.5696 Z" id="Fill-17" fill="#00285E" mask="url(#mask-2)"></path>
                    <polygon id="Fill-18" fill="#00285E" mask="url(#mask-2)" points="299.4372 2.592 292.0512 2.592 292.0512 7.854 299.1852 7.854 299.1852 10.104 292.0512 10.104 292.0512 15.522 299.6712 15.522 299.6712 17.772 289.5492 17.772 289.5492 0.342 299.4372 0.342"></polygon>
                    <path d="M310.731,7.9596 L312.339,7.9596 C315.021,7.9596 315.789,6.5796 315.765,5.1216 C315.735,3.4836 314.769,2.4936 312.339,2.4936 L310.731,2.4936 L310.731,7.9596 Z M312.621,0.3456 C316.143,0.3456 318.345,2.2116 318.345,5.2236 C318.345,7.2456 317.295,8.7516 315.429,9.4896 C317.013,10.5396 317.985,12.1476 319.311,14.3196 C320.055,15.5256 320.487,16.1076 321.693,17.7696 L318.699,17.7696 L316.401,14.1936 C314.103,10.6176 313.053,10.2096 311.775,10.2096 L310.731,10.2096 L310.731,17.7696 L308.229,17.7696 L308.229,0.3456 L312.621,0.3456 Z" id="Fill-19" fill="#00285E" mask="url(#mask-2)"></path>
                    <polygon id="Fill-20" fill="#E21837" mask="url(#mask-2)" points="152.556 13.416 165.954 13.416 165.954 4.674 152.556 4.674"></polygon>
                    <polygon id="Fill-21" fill="#FFFFFF" mask="url(#mask-2)" points="139.152 13.416 152.55 13.416 152.55 4.698 139.152 4.698"></polygon>
                    <polygon id="Fill-22" fill="#00285E" mask="url(#mask-2)" points="139.146 4.686 165.948 4.686 165.948 0.348 139.146 0.348"></polygon>
                    <polygon id="Fill-23" fill="#00285E" mask="url(#mask-2)" points="139.146 17.748 165.948 17.748 165.948 13.386 139.146 13.386"></polygon>
                </g>
            </g>
        </g>
    </g>
</svg>