<?xml version="1.0" encoding="UTF-8"?>
<svg width="156px" height="28px" viewBox="0 0 156 28" version="1.1" xmlns="http://www.w3.org/2000/svg" xmlns:xlink="http://www.w3.org/1999/xlink">
    <title>mango_logo</title>
    <g id="Menu-Option-1" stroke="none" stroke-width="1" fill="none" fill-rule="evenodd">
        <g id="Homepage-Copy-2" transform="translate(-645.000000, -385.000000)" fill="#1A1919">
            <g id="mango_logo" transform="translate(645.000000, 385.000000)">
                <polygon id="Fill-1" points="15.8107245 12.5878279 18.1887342 16.4500085 22.9637678 8.6400842 22.9637678 25.9329884 27.0783328 25.9329884 27.0783328 0.772579622 22.8869941 0.772579622"></polygon>
                <polygon id="Fill-2" points="4.26511666 0.772543746 0.0974558877 0.772543746 0.0974558877 25.9331319 4.22816486 25.9331319 4.22816486 8.64004832 13.5959843 23.9897542 15.9824248 20.0742985"></polygon>
                <polygon id="Fill-3" points="51.83507 18.1346877 55.6430786 25.9331319 60.6098669 25.9331319 48.1551372 0.772543746 43.6789468 0.772543746 43.6760768 0.785817694 49.9125002 14.1259556 41.6291982 14.1259556 43.7890847 9.77694399 41.5334105 5.04962489 31.0392787 25.9331319 35.6803171 25.9331319 39.6024099 18.1346877"></polygon>
                <polygon id="Fill-4" points="88.102293 0.772543746 83.9697902 0.772543746 83.9697902 12.9996432 88.102293 17.2408488"></polygon>
                <polygon id="Fill-5" points="68.1737568 0.772543746 63.9707586 0.772543746 63.9707586 25.9331319 68.1005707 25.9331319 68.1005707 7.13542843 85.0209075 25.9331319 88.1022571 25.9331319 88.1022571 22.8756395"></polygon>
                <g id="Group-12" transform="translate(93.276388, 0.008790)">
                    <path d="M23.6582284,7.74617352 C21.6994243,5.65265674 18.6677623,4.31288493 15.2678379,4.31288493 C9.83412959,4.31288493 5.35327541,7.73289957 4.63881415,12.1642455 L0.0924871263,12.1642455 C0.686585967,5.28744381 7.55298377,0.212490787 15.3169874,0.212490787 C19.9402675,0.212490787 24.0966275,1.9755939 26.8893584,4.81478365 L23.6582284,7.74617352 Z" id="Fill-6"></path>
                    <path d="M14.8872882,22.4150336 C10.3513651,22.4150336 6.49205455,19.8967505 5.05523941,16.3786162 L0.42083795,16.3786162 C1.95326138,22.4433752 7.97981293,26.4917498 15.1414664,26.4917498 C16.8089612,26.4917498 18.7132345,26.3245699 20.2989331,25.9184588 C23.8934822,25.007579 27.8012248,22.6200622 27.8012248,18.8470323 L27.8012248,12.1643173 L14.8340131,12.1643173 L14.8207391,16.3786162 L23.656345,16.3786162 L23.656345,18.2814545 C23.656345,20.4013398 20.5787623,21.6218255 18.6981668,22.0543051 C17.6818129,22.2783478 16.384733,22.4150336 15.3305304,22.4150336 L14.8872882,22.4150336 Z" id="Fill-8"></path>
                    <path d="M61.9276829,13.3743273 C61.9276829,5.86647492 55.2833546,0.0472839536 47.1195181,0.0472839536 C39.2216987,0.0472839536 32.2792448,5.59956095 32.2792448,12.963373 C32.2792448,19.9137196 37.7260477,25.4744273 45.075689,26.3627056 L45.075689,22.1570167 C40.2692643,21.3523285 36.6329202,17.6668349 36.6329202,13.2460722 C36.6329202,8.22995509 41.3015828,4.1476781 47.0637317,4.1476781 C52.8235486,4.1476781 57.4932875,8.22995509 57.4932875,13.2460722 C57.4932875,17.6343675 53.9204431,21.2875732 49.1683699,22.1380027 L49.1683699,26.3514048 C56.2161185,25.4744273 61.9276829,20.1167751 61.9276829,13.3743273" id="Fill-10"></path>
                </g>
            </g>
        </g>
    </g>
</svg>