<?xml version="1.0" encoding="UTF-8"?>
<svg width="138px" height="55px" viewBox="0 0 138 55" version="1.1" xmlns="http://www.w3.org/2000/svg" xmlns:xlink="http://www.w3.org/1999/xlink">
    <title>Group 11</title>
    <g id="Menu-Option-1" stroke="none" stroke-width="1" fill="none" fill-rule="evenodd">
        <g id="Homepage-Copy-2" transform="translate(-659.000000, -175.000000)" fill="#AA182C">
            <g id="Group-11" transform="translate(659.500000, 175.000000)">
                <path d="M123.606526,3.72673887 C123.606526,4.64519385 123.329941,5.31382908 122.784674,5.73264455 C122.239407,6.15880766 121.551896,6.40862742 120.737947,6.48945145 L123.859404,10.9641641 L122.033944,10.9641641 L119.070536,6.60701369 L117.268784,6.60701369 L117.268784,10.9641641 L115.577665,10.9641641 L115.577665,2.12495338 L112.535233,2.12495338 C112.369282,2.38946842 112.227038,2.66867873 112.092697,2.96258433 C111.705478,3.85899639 111.507918,4.82888485 111.507918,5.86490207 C111.507918,6.93030984 111.705478,7.91489358 112.092697,8.81865329 C112.479916,9.72241299 113.025183,10.5086105 113.720596,11.1772457 C114.400204,11.8385333 115.222056,12.3602157 116.162444,12.742293 C117.102833,13.1170226 118.122245,13.3080612 119.212779,13.3080612 C120.303314,13.3080612 121.299019,13.1170226 122.239407,12.742293 C123.16399,12.3602157 123.97794,11.8385333 124.665451,11.1772457 C125.360864,10.5086105 125.898229,9.72241299 126.29335,8.81865329 C126.680568,7.91489358 126.878129,6.93030984 126.878129,5.86490207 C126.878129,4.82888485 126.680568,3.85899639 126.29335,2.96258433 C126.159008,2.66867873 126.016765,2.38946842 125.850814,2.12495338 L123.1956,2.12495338 C123.464283,2.55111649 123.606526,3.0874942 123.606526,3.72673887" id="Fill-1"></path>
                <path d="M47.9740243,19.4771397 C45.6112001,19.4771397 44.354715,21.1891397 44.3310077,22.9525733 L51.9331378,22.9525733 C51.9331378,20.8805389 50.5186042,19.4771397 47.9740243,19.4771397" id="Fill-4"></path>
                <path d="M117.271154,5.32705483 L119.041297,5.32705483 C119.420613,5.32705483 119.784125,5.31970719 120.123929,5.29766427 C120.471635,5.27562135 120.771927,5.20214495 121.04061,5.09927799 C121.30139,4.9890634 121.514755,4.82741532 121.672803,4.59963848 C121.830852,4.37186165 121.909876,4.06326078 121.909876,3.65914058 C121.909876,3.32114915 121.838754,3.04928648 121.704413,2.8509002 C121.554267,2.64516628 121.380414,2.49086585 121.151244,2.38065125 C120.922073,2.27778429 120.669196,2.20430789 120.376806,2.16022205 C120.250367,2.14552678 120.123929,2.1308315 119.99749,2.12348386 L117.271154,2.12348386 L117.271154,5.32705483 Z" id="Fill-6"></path>
                <path d="M108.508158,34.1180468 C100.218518,34.1180468 98.7012525,29.6653771 98.7012525,28.5632311 L104.714996,28.5632311 C104.714996,29.2098234 105.655384,29.9886732 106.453529,30.2972741 C107.10943,30.5617891 107.844355,30.6132226 108.523963,30.6132226 C110.215082,30.6132226 111.605908,30.2311453 111.605908,29.320038 C111.605908,28.2105444 110.183472,27.9607246 108.61089,27.7549907 C104.351484,27.1818748 98.3772532,26.5132396 98.3772532,22.0826127 C98.3772532,17.9458915 103.237243,15.8371189 108.389622,15.8371189 C116.639751,15.8371189 118.836624,20.0914023 118.836624,21.3258058 L112.728052,21.3258058 C112.728052,20.9510762 112.42776,20.2457028 111.598005,19.8489302 C110.973714,19.547677 110.072838,19.3052049 109.195669,19.3052049 C106.911869,19.3052049 105.631677,19.7460633 105.631677,20.7159517 C105.631677,21.5094968 106.78543,21.8989217 108.444939,22.1707844 C112.783369,22.8614626 119.437208,23.096587 119.437208,28.0048105 C119.437208,30.4956604 117.113896,34.1180468 108.508158,34.1180468 L108.508158,34.1180468 Z M98.3219362,18.4308357 L95.9828193,20.7967758 L95.0108214,20.7967758 L96.0855508,18.2104065 L93.9439944,18.2104065 L93.9439944,14.7790587 L98.3219362,14.7790587 L98.3219362,18.4308357 Z M84.7376726,33.6257549 L92.4978511,33.6257549 L92.4978511,16.2559343 L84.7376726,16.2559343 L84.7376726,33.6257549 Z M74.6146698,33.6551455 L67.8343916,33.6551455 L57.7113889,16.2853249 L66.8465889,16.2853249 L72.6548691,26.8438834 L72.8129176,27.1598319 L72.9551612,26.8438834 L78.3920276,16.2853249 L83.8763086,16.2853249 L74.6146698,33.6551455 Z M60.0505058,26.4397632 L44.3404906,26.4397632 C44.3404906,28.6954886 46.4030228,30.4001411 49.1372609,30.4001411 C50.7651598,30.4001411 52.2429128,29.8931539 53.2939349,28.5411882 L59.5526532,28.5411882 C57.5059259,32.9130339 53.53891,34.154785 48.1257508,34.154785 C41.0846927,34.154785 36.1061667,30.6132226 36.1061667,24.9996258 C36.1061667,19.0039516 41.0135709,15.8444665 48.1257508,15.8444665 C56.0834899,15.8444665 60.0742131,20.6351277 60.0742131,25.2494455 C60.0742131,25.6388704 60.1058228,26.0209477 60.0505058,26.4397632 L60.0505058,26.4397632 Z M35.979728,33.6331026 L18.0807419,33.6331026 L18.0807419,16.3000202 L26.1254076,16.3000202 L26.1254076,28.9159178 L35.979728,28.9159178 L35.979728,33.6331026 Z M127.647825,2.12642291 C127.711044,2.23663751 127.774264,2.33950447 127.821678,2.44971906 C128.319531,3.50043156 128.572408,4.63931574 128.572408,5.85902395 C128.572408,7.11547037 128.319531,8.26904983 127.821678,9.3344576 C127.323825,10.3925177 126.65212,11.3109727 125.798658,12.0898225 C124.961001,12.8686724 123.965296,13.4785265 122.83525,13.9120372 C121.705203,14.345548 120.496133,14.5586295 119.21594,14.5586295 C117.935748,14.5586295 116.726677,14.345548 115.588729,13.9120372 C114.45078,13.4785265 113.447172,12.8686724 112.593711,12.0898225 C111.740249,11.3109727 111.060641,10.3925177 110.562788,9.3344576 C110.064936,8.26904983 109.812058,7.11547037 109.812058,5.85902395 C109.812058,4.63931574 110.064936,3.50043156 110.562788,2.44971906 C110.618105,2.33950447 110.673422,2.23663751 110.736641,2.12642291 L68.0872691,2.12642291 L68.0714643,2.12642291 L0,2.12642291 L13.0943135,54.0154555 C40.5789377,37.5787852 66.9967349,53.3762109 68.0635619,53.9787173 C68.0635619,53.9787173 68.0714643,53.9713697 68.0714643,53.9713697 L68.0872691,53.9713697 C68.0872691,53.9713697 68.0872691,53.9787173 68.0951716,53.9787173 L68.0951716,53.9787173 C69.1619986,53.3762109 95.5797958,37.5787852 123.06442,54.0154555 L136.158733,2.12642291 L127.647825,2.12642291 Z" id="Fill-9"></path>
            </g>
        </g>
    </g>
</svg>